<mxfile host="app.diagrams.net" modified="2022-07-07T06:06:43.260Z" agent="5.0 (Windows NT 10.0; Win64; x64) AppleWebKit/537.36 (KHTML, like Gecko) Chrome/103.0.0.0 Safari/537.36" etag="kVDntIO6Il4X8O9A4-lB" version="20.0.4" type="github">
  <diagram id="ZZ4YLtHEK5VaRvVB3uhA" name="第 1 页">
    <mxGraphModel dx="1422" dy="762" grid="1" gridSize="10" guides="1" tooltips="1" connect="1" arrows="1" fold="1" page="1" pageScale="1" pageWidth="1169" pageHeight="827" background="#F1FAEE" math="0" shadow="0">
      <root>
        <mxCell id="0" />
        <mxCell id="1" parent="0" />
        <mxCell id="Srg9AirzSWLOJNXBrE-P-16" value="master" style="rounded=0;whiteSpace=wrap;html=1;fontSize=20;" vertex="1" parent="1">
          <mxGeometry x="120" y="560" width="120" height="40" as="geometry" />
        </mxCell>
        <mxCell id="Srg9AirzSWLOJNXBrE-P-17" value="" style="endArrow=classic;html=1;rounded=0;fontSize=20;exitX=1;exitY=0.5;exitDx=0;exitDy=0;dashed=1;" edge="1" parent="1" source="Srg9AirzSWLOJNXBrE-P-16">
          <mxGeometry width="50" height="50" relative="1" as="geometry">
            <mxPoint x="280" y="620" as="sourcePoint" />
            <mxPoint x="810" y="580" as="targetPoint" />
          </mxGeometry>
        </mxCell>
        <mxCell id="Srg9AirzSWLOJNXBrE-P-18" value="" style="endArrow=classic;html=1;rounded=0;dashed=1;fontSize=20;entryX=0.567;entryY=-0.05;entryDx=0;entryDy=0;entryPerimeter=0;" edge="1" parent="1" target="Srg9AirzSWLOJNXBrE-P-16">
          <mxGeometry width="50" height="50" relative="1" as="geometry">
            <mxPoint x="280" y="480" as="sourcePoint" />
            <mxPoint x="330" y="450" as="targetPoint" />
          </mxGeometry>
        </mxCell>
        <mxCell id="Srg9AirzSWLOJNXBrE-P-19" value="develop" style="rounded=0;whiteSpace=wrap;html=1;fontSize=20;" vertex="1" parent="1">
          <mxGeometry x="280" y="440" width="120" height="40" as="geometry" />
        </mxCell>
        <mxCell id="Srg9AirzSWLOJNXBrE-P-20" value="仅仅包括最终产品代码&lt;br&gt;不可对其直接提交&lt;br&gt;" style="text;html=1;strokeColor=none;fillColor=none;align=left;verticalAlign=top;whiteSpace=wrap;rounded=0;fontSize=16;" vertex="1" parent="1">
          <mxGeometry x="200" y="679" width="170" height="51" as="geometry" />
        </mxCell>
        <mxCell id="Srg9AirzSWLOJNXBrE-P-21" value="" style="curved=1;endArrow=classic;html=1;rounded=0;dashed=1;fontSize=16;entryX=0.5;entryY=1;entryDx=0;entryDy=0;" edge="1" parent="1" target="Srg9AirzSWLOJNXBrE-P-16">
          <mxGeometry width="50" height="50" relative="1" as="geometry">
            <mxPoint x="190" y="700" as="sourcePoint" />
            <mxPoint x="90" y="630" as="targetPoint" />
            <Array as="points">
              <mxPoint x="170" y="690" />
              <mxPoint x="150" y="650" />
            </Array>
          </mxGeometry>
        </mxCell>
        <mxCell id="Srg9AirzSWLOJNXBrE-P-22" value="用于汇总所有已完成的新功能的基础分支&lt;br&gt;（之后被整合入master）" style="text;html=1;strokeColor=none;fillColor=none;align=left;verticalAlign=top;whiteSpace=wrap;rounded=0;fontSize=16;" vertex="1" parent="1">
          <mxGeometry x="140" y="310" width="290" height="50" as="geometry" />
        </mxCell>
        <mxCell id="Srg9AirzSWLOJNXBrE-P-23" value="" style="curved=1;endArrow=classic;html=1;rounded=0;dashed=1;fontSize=16;entryX=0.5;entryY=0;entryDx=0;entryDy=0;exitX=0.383;exitY=1.12;exitDx=0;exitDy=0;exitPerimeter=0;" edge="1" parent="1" source="Srg9AirzSWLOJNXBrE-P-22" target="Srg9AirzSWLOJNXBrE-P-19">
          <mxGeometry width="50" height="50" relative="1" as="geometry">
            <mxPoint x="300" y="390" as="sourcePoint" />
            <mxPoint x="140" y="440" as="targetPoint" />
            <Array as="points">
              <mxPoint x="230" y="400" />
            </Array>
          </mxGeometry>
        </mxCell>
        <mxCell id="Srg9AirzSWLOJNXBrE-P-24" value="" style="endArrow=classic;html=1;rounded=0;dashed=1;fontSize=16;exitX=1;exitY=0.5;exitDx=0;exitDy=0;startArrow=block;startFill=1;" edge="1" parent="1" source="Srg9AirzSWLOJNXBrE-P-19">
          <mxGeometry width="50" height="50" relative="1" as="geometry">
            <mxPoint x="520" y="500" as="sourcePoint" />
            <mxPoint x="990" y="460" as="targetPoint" />
          </mxGeometry>
        </mxCell>
        <mxCell id="Srg9AirzSWLOJNXBrE-P-25" value="" style="endArrow=classic;html=1;rounded=0;dashed=1;fontSize=16;entryX=0.5;entryY=1;entryDx=0;entryDy=0;startArrow=block;startFill=1;" edge="1" parent="1">
          <mxGeometry width="50" height="50" relative="1" as="geometry">
            <mxPoint x="750" y="460" as="sourcePoint" />
            <mxPoint x="810" y="390" as="targetPoint" />
          </mxGeometry>
        </mxCell>
        <mxCell id="Srg9AirzSWLOJNXBrE-P-26" value="功能分支&lt;span style=&quot;font-family: &amp;quot;PingFang SC&amp;quot;, &amp;quot;Microsoft YaHei&amp;quot;, &amp;quot;Helvetica Neue&amp;quot;, Helvetica, Arial, sans-serif; font-size: 14px; text-align: left; background-color: rgb(255, 255, 255);&quot;&gt;feature-*&lt;/span&gt;" style="rounded=0;whiteSpace=wrap;html=1;fontSize=14;" vertex="1" parent="1">
          <mxGeometry x="530" y="350" width="140" height="40" as="geometry" />
        </mxCell>
        <mxCell id="Srg9AirzSWLOJNXBrE-P-27" value="" style="endArrow=classic;html=1;rounded=0;dashed=1;fontSize=16;entryX=0.5;entryY=1;entryDx=0;entryDy=0;startArrow=block;startFill=1;" edge="1" parent="1" target="Srg9AirzSWLOJNXBrE-P-26">
          <mxGeometry width="50" height="50" relative="1" as="geometry">
            <mxPoint x="550" y="460" as="sourcePoint" />
            <mxPoint x="602" y="390" as="targetPoint" />
          </mxGeometry>
        </mxCell>
        <mxCell id="Srg9AirzSWLOJNXBrE-P-29" value="功能分支&lt;span style=&quot;font-family: &amp;quot;PingFang SC&amp;quot;, &amp;quot;Microsoft YaHei&amp;quot;, &amp;quot;Helvetica Neue&amp;quot;, Helvetica, Arial, sans-serif; font-size: 14px; text-align: left; background-color: rgb(255, 255, 255);&quot;&gt;feature-*&lt;/span&gt;" style="rounded=0;whiteSpace=wrap;html=1;fontSize=14;" vertex="1" parent="1">
          <mxGeometry x="730" y="350" width="140" height="40" as="geometry" />
        </mxCell>
        <mxCell id="Srg9AirzSWLOJNXBrE-P-31" value="紧急修复分支&lt;span style=&quot;font-family: &amp;quot;PingFang SC&amp;quot;, &amp;quot;Microsoft YaHei&amp;quot;, &amp;quot;Helvetica Neue&amp;quot;, Helvetica, Arial, sans-serif; text-align: left; background-color: rgb(255, 255, 255);&quot;&gt;hotfix-*&lt;/span&gt;" style="rounded=0;whiteSpace=wrap;html=1;fontSize=14;" vertex="1" parent="1">
          <mxGeometry x="520" y="639" width="160" height="40" as="geometry" />
        </mxCell>
        <mxCell id="Srg9AirzSWLOJNXBrE-P-32" value="" style="endArrow=classic;startArrow=classic;html=1;rounded=0;dashed=1;fontSize=14;exitX=0.463;exitY=-0.025;exitDx=0;exitDy=0;exitPerimeter=0;" edge="1" parent="1" source="Srg9AirzSWLOJNXBrE-P-31">
          <mxGeometry width="50" height="50" relative="1" as="geometry">
            <mxPoint x="550" y="640" as="sourcePoint" />
            <mxPoint x="520" y="580" as="targetPoint" />
          </mxGeometry>
        </mxCell>
      </root>
    </mxGraphModel>
  </diagram>
</mxfile>
